<mxfile host="app.diagrams.net" agent="Mozilla/5.0 (Windows NT 10.0; Win64; x64) AppleWebKit/537.36 (KHTML, like Gecko) Chrome/128.0.0.0 Safari/537.36 Edg/128.0.0.0" version="24.7.7">
  <diagram name="Страница — 1" id="IbbD1odOLBukuFQ54yHy">
    <mxGraphModel dx="792" dy="452" grid="1" gridSize="10" guides="1" tooltips="1" connect="1" arrows="1" fold="1" page="1" pageScale="1" pageWidth="827" pageHeight="1169" math="0" shadow="0">
      <root>
        <mxCell id="0" />
        <mxCell id="1" parent="0" />
        <mxCell id="dAlfaeYDkkwgbKR6Jmyj-1" value="" style="rounded=0;whiteSpace=wrap;html=1;" parent="1" vertex="1">
          <mxGeometry x="280" y="120" width="320" height="200" as="geometry" />
        </mxCell>
        <mxCell id="dAlfaeYDkkwgbKR6Jmyj-2" value="" style="rounded=0;whiteSpace=wrap;html=1;" parent="1" vertex="1">
          <mxGeometry x="280" y="120" width="320" height="20" as="geometry" />
        </mxCell>
        <mxCell id="dAlfaeYDkkwgbKR6Jmyj-4" value="" style="rounded=0;whiteSpace=wrap;html=1;" parent="1" vertex="1">
          <mxGeometry x="580" y="120" width="20" height="20" as="geometry" />
        </mxCell>
        <mxCell id="dAlfaeYDkkwgbKR6Jmyj-5" value="" style="rounded=0;whiteSpace=wrap;html=1;" parent="1" vertex="1">
          <mxGeometry x="560" y="120" width="20" height="20" as="geometry" />
        </mxCell>
        <mxCell id="dAlfaeYDkkwgbKR6Jmyj-6" value="" style="rounded=0;whiteSpace=wrap;html=1;" parent="1" vertex="1">
          <mxGeometry x="540" y="120" width="20" height="20" as="geometry" />
        </mxCell>
        <mxCell id="dAlfaeYDkkwgbKR6Jmyj-7" value="" style="endArrow=none;html=1;rounded=0;exitX=1;exitY=0.25;exitDx=0;exitDy=0;endSize=2;strokeWidth=1;" parent="1" edge="1">
          <mxGeometry width="50" height="50" relative="1" as="geometry">
            <mxPoint x="580.0000000000001" y="119.87" as="sourcePoint" />
            <mxPoint x="580" y="119.87" as="targetPoint" />
            <Array as="points">
              <mxPoint x="590" y="120" />
            </Array>
          </mxGeometry>
        </mxCell>
        <mxCell id="dAlfaeYDkkwgbKR6Jmyj-12" value="" style="endArrow=none;html=1;rounded=0;" parent="1" edge="1">
          <mxGeometry width="50" height="50" relative="1" as="geometry">
            <mxPoint x="545" y="129.92000000000002" as="sourcePoint" />
            <mxPoint x="555" y="129.92000000000002" as="targetPoint" />
          </mxGeometry>
        </mxCell>
        <mxCell id="dAlfaeYDkkwgbKR6Jmyj-13" value="" style="endArrow=none;html=1;rounded=0;" parent="1" edge="1">
          <mxGeometry width="50" height="50" relative="1" as="geometry">
            <mxPoint x="585" y="135" as="sourcePoint" />
            <mxPoint x="595" y="125" as="targetPoint" />
            <Array as="points">
              <mxPoint x="585" y="135" />
            </Array>
          </mxGeometry>
        </mxCell>
        <mxCell id="dAlfaeYDkkwgbKR6Jmyj-14" value="" style="endArrow=none;html=1;rounded=0;" parent="1" edge="1">
          <mxGeometry width="50" height="50" relative="1" as="geometry">
            <mxPoint x="585" y="125" as="sourcePoint" />
            <mxPoint x="595" y="135" as="targetPoint" />
          </mxGeometry>
        </mxCell>
        <mxCell id="dAlfaeYDkkwgbKR6Jmyj-15" value="" style="rounded=0;whiteSpace=wrap;html=1;" parent="1" vertex="1">
          <mxGeometry x="310" y="125" width="30" height="10" as="geometry" />
        </mxCell>
        <mxCell id="dAlfaeYDkkwgbKR6Jmyj-16" value="" style="rounded=0;whiteSpace=wrap;html=1;" parent="1" vertex="1">
          <mxGeometry x="290" y="125" width="10" height="10" as="geometry" />
        </mxCell>
        <mxCell id="dAlfaeYDkkwgbKR6Jmyj-17" value="" style="rounded=0;whiteSpace=wrap;html=1;" parent="1" vertex="1">
          <mxGeometry x="420" y="210" width="40" height="20" as="geometry" />
        </mxCell>
        <mxCell id="dAlfaeYDkkwgbKR6Jmyj-18" value="&lt;font style=&quot;font-size: 10px;&quot;&gt;1&lt;/font&gt;" style="text;html=1;strokeColor=none;fillColor=none;align=center;verticalAlign=middle;whiteSpace=wrap;rounded=0;" parent="1" vertex="1">
          <mxGeometry x="290" y="127.5" width="10" height="5" as="geometry" />
        </mxCell>
        <mxCell id="dAlfaeYDkkwgbKR6Jmyj-19" value="2" style="text;html=1;strokeColor=none;fillColor=none;align=center;verticalAlign=middle;whiteSpace=wrap;rounded=0;fontSize=10;" parent="1" vertex="1">
          <mxGeometry x="320" y="127.5" width="10" height="5" as="geometry" />
        </mxCell>
        <mxCell id="dAlfaeYDkkwgbKR6Jmyj-20" value="&lt;font style=&quot;font-size: 10px;&quot;&gt;3&lt;/font&gt;" style="text;html=1;strokeColor=none;fillColor=none;align=center;verticalAlign=middle;whiteSpace=wrap;rounded=0;" parent="1" vertex="1">
          <mxGeometry x="430" y="215" width="20" height="10" as="geometry" />
        </mxCell>
        <mxCell id="dAlfaeYDkkwgbKR6Jmyj-38" value="" style="rounded=0;whiteSpace=wrap;html=1;" parent="1" vertex="1">
          <mxGeometry x="400" y="160" width="80" height="40" as="geometry" />
        </mxCell>
        <mxCell id="dAlfaeYDkkwgbKR6Jmyj-40" value="&lt;font style=&quot;font-size: 10px;&quot;&gt;4&lt;/font&gt;" style="text;html=1;strokeColor=none;fillColor=none;align=center;verticalAlign=middle;whiteSpace=wrap;rounded=0;movable=1;resizable=1;rotatable=1;deletable=1;editable=1;locked=0;connectable=1;" parent="1" vertex="1">
          <mxGeometry x="412" y="170" width="56" height="20" as="geometry" />
        </mxCell>
        <mxCell id="pZ6etvIaH3ow27z-5eOP-1" value="" style="rounded=0;whiteSpace=wrap;html=1;" parent="1" vertex="1">
          <mxGeometry x="290" y="150" width="10" height="10" as="geometry" />
        </mxCell>
        <mxCell id="pZ6etvIaH3ow27z-5eOP-4" value="6" style="text;html=1;strokeColor=none;fillColor=none;align=center;verticalAlign=middle;whiteSpace=wrap;rounded=0;fontSize=10;" parent="1" vertex="1">
          <mxGeometry x="265" y="140" width="60" height="30" as="geometry" />
        </mxCell>
        <mxCell id="DSsPIOKE7wu4NQ4Pu7GP-2" value="" style="rounded=0;whiteSpace=wrap;html=1;" vertex="1" parent="1">
          <mxGeometry x="410" y="240" width="60" height="30" as="geometry" />
        </mxCell>
        <mxCell id="DSsPIOKE7wu4NQ4Pu7GP-3" value="5" style="text;html=1;align=center;verticalAlign=middle;whiteSpace=wrap;rounded=0;" vertex="1" parent="1">
          <mxGeometry x="410" y="240" width="60" height="30" as="geometry" />
        </mxCell>
        <mxCell id="DSsPIOKE7wu4NQ4Pu7GP-4" value="" style="rounded=0;whiteSpace=wrap;html=1;" vertex="1" parent="1">
          <mxGeometry x="580" y="150" width="10" height="10" as="geometry" />
        </mxCell>
        <mxCell id="DSsPIOKE7wu4NQ4Pu7GP-5" value="7" style="text;html=1;align=center;verticalAlign=middle;whiteSpace=wrap;rounded=0;" vertex="1" parent="1">
          <mxGeometry x="555" y="140" width="60" height="30" as="geometry" />
        </mxCell>
      </root>
    </mxGraphModel>
  </diagram>
</mxfile>
